HIERARCHY
ROOT Hips
{
	OFFSET 0.000000 0.000000 0.000000
	CHANNELS 6 Xposition Yposition Zposition Zrotation Yrotation Xrotation 
	JOINT LowerBack
	{
		OFFSET 0.000000 0.000000 0.000000
		CHANNELS 3 Zrotation Yrotation Xrotation
		JOINT Spine
		{
			OFFSET 0.028270 2.035590 -0.193380
			CHANNELS 3 Zrotation Yrotation Xrotation
			JOINT Spine1
			{
				OFFSET 0.056720 2.048850 -0.042750
				CHANNELS 3 Zrotation Yrotation Xrotation
				JOINT Neck
				{
					OFFSET 0.000000 0.000000 0.000000
					CHANNELS 3 Zrotation Yrotation Xrotation
					JOINT Neck1
					{
						OFFSET -0.054170 1.746240 0.172020
						CHANNELS 3 Zrotation Yrotation Xrotation
						JOINT Head
						{
							OFFSET 0.104070 1.761360 -0.123970
							CHANNELS 3 Zrotation Yrotation Xrotation
							End Site
							{
								OFFSET 0.000000 0.000000 0.000000
							}
						}
					}
				}
				JOINT LeftShoulder
				{
					OFFSET 0.000000 0.000000 0.000000
					CHANNELS 3 Zrotation Yrotation Xrotation
					JOINT LeftArm
					{
						OFFSET 3.362410 1.200890 -0.311210
						CHANNELS 3 Zrotation Yrotation Xrotation
						JOINT LeftForeArm
						{
							OFFSET 4.983000 -0.000000 -0.000000
							CHANNELS 3 Zrotation Yrotation Xrotation
							JOINT LeftHand
							{
								OFFSET 3.483560 -0.000000 -0.000000
								CHANNELS 3 Zrotation Yrotation Xrotation
								JOINT LeftFingerBase
								{
									OFFSET 0.000000 0.000000 0.000000
									CHANNELS 3 Zrotation Yrotation Xrotation
									JOINT LeftHandIndex1
									{
										OFFSET 0.715260 -0.000000 -0.000000
										CHANNELS 3 Zrotation Yrotation Xrotation
										End Site
										{
											OFFSET 0.000000 0.000000 0.000000
										}
									}
								}
								JOINT LThumb
								{
									OFFSET 0.000000 0.000000 0.000000
									CHANNELS 3 Zrotation Yrotation Xrotation
									End Site
									{
										OFFSET 0.000000 0.000000 0.000000
									}
								}
							}
						}
					}
				}
				JOINT RightShoulder
				{
					OFFSET 0.000000 0.000000 0.000000
					CHANNELS 3 Zrotation Yrotation Xrotation
					JOINT RightArm
					{
						OFFSET -3.136600 1.374050 -0.404650
						CHANNELS 3 Zrotation Yrotation Xrotation
						JOINT RightForeArm
						{
							OFFSET -5.241900 -0.000000 -0.000000
							CHANNELS 3 Zrotation Yrotation Xrotation
							JOINT RightHand
							{
								OFFSET -3.444170 -0.000000 -0.000000
								CHANNELS 3 Zrotation Yrotation Xrotation
								JOINT RightFingerBase
								{
									OFFSET 0.000000 0.000000 0.000000
									CHANNELS 3 Zrotation Yrotation Xrotation
									JOINT RightHandIndex1
									{
										OFFSET -0.622530 -0.000000 -0.000000
										CHANNELS 3 Zrotation Yrotation Xrotation
										End Site
										{
											OFFSET 0.000000 0.000000 0.000000
										}
									}
								}
								JOINT RThumb
								{
									OFFSET 0.000000 0.000000 0.000000
									CHANNELS 3 Zrotation Yrotation Xrotation
									End Site
									{
										OFFSET 0.000000 0.000000 0.000000
									}
								}
							}
						}
					}
				}
			}
		}
	}
}
}
MOTION
Frames: 10
Frame Time: 0.008333
6.124920 16.575886 -1.708083 -171.795641 28.671446 -158.093979 -3.100883 1.062103 -2.639854 -1.520816 1.198192 -3.611331 -6.129162 1.246781 -0.663417 11.271529 -9.090652 -7.173583 -1.747290 -0.137157 0.085142 0.000000 0.000000 0.000000 0.762605 14.372561 0.367243 -58.507632 9.935993 24.640185 -179.405560 -79.723003 179.978184 4.696504 3.147090 0.126270 -0.153538 0.226364 -0.000000 0.000000 0.000000 0.000000 0.000000 0.000000 0.000000 5.803415 -1.134492 0.214959 52.350833 14.885512 17.109404 179.622699 83.408468 -179.999808 -0.875779 3.802567 -0.032949 0.056658 -0.449870 -0.000000 0.000000 0.000000 0.000000 0.000000 0.000000 0.000000 
6.254121 16.474575 -1.817065 -171.838139 28.226330 -158.109122 -3.433545 0.886433 -2.745412 -1.582294 1.045997 -3.622361 -6.126256 1.093434 -0.642522 11.628600 -9.127674 -7.257139 -1.756128 -0.136383 0.058327 0.000000 0.000000 0.000000 0.752366 14.381198 0.397052 -58.870707 10.091385 23.655102 -179.412714 -79.826033 179.976854 4.979418 2.959508 0.124941 -0.158021 0.233477 -0.000000 0.000000 0.000000 0.000000 0.000000 0.000000 0.000000 6.165279 -1.189732 0.275817 51.620117 15.365829 16.472686 179.570192 82.692792 -179.997148 -0.447828 3.769365 -0.016699 0.048707 -0.454554 -0.000000 0.000000 0.000000 0.000000 0.000000 0.000000 0.000000 
6.378026 16.375006 -1.925397 -171.936615 27.803816 -158.148253 -3.760639 0.697490 -2.817913 -1.639855 0.880878 -3.623980 -6.123710 0.927317 -0.613767 11.951171 -9.136096 -7.349952 -1.770441 -0.135788 0.028257 0.000000 0.000000 0.000000 0.645201 14.435327 0.443190 -59.262273 10.048862 22.655665 -179.424014 -80.067044 179.975072 5.330217 2.819369 0.126526 -0.164735 0.239820 -0.000000 0.000000 0.000000 0.000000 0.000000 0.000000 0.000000 6.518607 -1.229899 0.327313 50.963967 15.859895 15.760657 179.522377 82.062446 -179.994145 0.022842 3.833263 0.000940 0.038892 -0.460840 -0.000000 0.000000 0.000000 0.000000 0.000000 0.000000 0.000000 
6.495483 16.279499 -2.033512 -172.075744 27.398139 -158.201439 -4.057183 0.506541 -2.857447 -1.688862 0.712140 -3.616824 -6.122582 0.757730 -0.579148 12.223447 -9.121442 -7.447781 -1.788457 -0.135326 -0.003594 0.000000 0.000000 0.000000 0.437085 14.526572 0.503552 -59.689051 9.779901 21.666869 -179.441423 -80.478391 179.972766 5.755255 2.739538 0.132022 -0.173730 0.245053 -0.000000 0.000000 0.000000 0.000000 0.000000 0.000000 0.000000 6.836627 -1.258785 0.363799 50.419433 16.321554 14.966158 179.481507 81.525105 -179.991006 0.507007 3.986152 0.020171 0.027689 -0.468542 -0.000000 0.000000 0.000000 0.000000 0.000000 0.000000 0.000000 
6.605487 16.190531 -2.142000 -172.239040 27.004736 -158.256438 -4.301480 0.324705 -2.868175 -1.725827 0.549111 -3.603247 -6.125205 0.593900 -0.543451 12.433714 -9.088935 -7.544144 -1.809491 -0.135073 -0.035062 0.000000 0.000000 0.000000 0.128274 14.634074 0.574399 -60.155309 9.282068 20.706490 -179.466710 -81.075619 179.969929 6.255687 2.727088 0.142325 -0.184755 0.248945 -0.000000 0.000000 0.000000 0.000000 0.000000 0.000000 0.000000 7.101422 -1.278927 0.381955 50.017455 16.703152 14.089641 179.449354 81.084912 -179.987983 0.970929 4.208682 0.040500 0.015853 -0.477210 -0.000000 0.000000 0.000000 0.000000 0.000000 0.000000 0.000000 
6.707560 16.110439 -2.251509 -172.415919 26.624041 -158.300767 -4.481171 0.161967 -2.859984 -1.749419 0.400636 -3.586575 -6.134070 0.444553 -0.510189 12.576034 -9.044207 -7.633542 -1.833231 -0.135125 -0.064252 0.000000 0.000000 0.000000 -0.268460 14.741124 0.651192 -60.668159 8.560656 19.794381 -179.501448 -81.866939 179.966567 6.827462 2.780919 0.158229 -0.197367 0.251492 -0.000000 0.000000 0.000000 0.000000 0.000000 0.000000 0.000000 7.303942 -1.292967 0.379281 49.783611 16.961372 13.138919 179.427293 80.742588 -179.985341 1.380381 4.474961 0.060932 0.004250 -0.486237 -0.000000 0.000000 0.000000 0.000000 0.000000 0.000000 0.000000 
6.801494 16.041250 -2.362746 -172.592297 26.259346 -158.317746 -4.584478 0.026980 -2.847283 -1.758451 0.274226 -3.570733 -6.151368 0.317076 -0.481655 12.648122 -8.993262 -7.711539 -1.859727 -0.135592 -0.089536 0.000000 0.000000 0.000000 -0.736593 14.834475 0.728635 -61.233353 7.634455 18.949398 -179.546499 -82.845299 179.962767 7.459702 2.893301 0.180126 -0.210947 0.252857 -0.000000 0.000000 0.000000 0.000000 0.000000 0.000000 0.000000 7.441911 -1.303814 0.354879 49.731549 17.064862 12.128256 179.415972 80.496651 -179.983325 1.703574 4.756866 0.079772 -0.006224 -0.494946 -0.000000 0.000000 0.000000 0.000000 0.000000 0.000000 0.000000 
6.887162 15.984412 -2.476547 -172.749685 25.915653 -158.289004 -4.601415 -0.073772 -2.846515 -1.751985 0.175299 -3.560023 -6.178772 0.216723 -0.460648 12.651038 -8.940063 -7.773255 -1.889418 -0.136623 -0.109180 0.000000 0.000000 0.000000 -1.255935 14.897929 0.801059 -61.856385 6.544469 18.183595 -179.601558 -83.982943 179.958610 8.133909 3.050346 0.207512 -0.224690 0.253353 -0.000000 0.000000 0.000000 0.000000 0.000000 0.000000 0.000000 7.518317 -1.312198 0.310039 49.863367 16.993370 11.076050 179.415225 80.343299 -179.982128 1.915401 5.027227 0.094525 -0.014797 -0.502699 -0.000000 0.000000 0.000000 0.000000 0.000000 0.000000 0.000000 
6.964926 15.940720 -2.593663 -172.871911 25.597788 -158.199580 -4.524406 -0.137051 -2.872828 -1.729141 0.106169 -3.557855 -6.216365 0.145688 -0.448488 12.588346 -8.888239 -7.815371 -1.922725 -0.138335 -0.121944 0.000000 0.000000 0.000000 -1.801925 14.919468 0.863217 -62.541810 5.342364 17.506086 -179.665100 -85.236700 179.954259 8.825300 3.234068 0.239481 -0.237777 0.253395 -0.000000 0.000000 0.000000 0.000000 0.000000 0.000000 0.000000 7.539768 -1.319314 0.247500 50.169302 16.742965 10.003476 179.424268 80.278418 -179.981872 1.999044 5.263448 0.103093 -0.020900 -0.508992 -0.000000 0.000000 0.000000 0.000000 0.000000 0.000000 0.000000 
7.035235 15.910253 -2.714773 -172.942315 25.307326 -158.039926 -4.348018 -0.163268 -2.936988 -1.689051 0.065632 -3.566226 -6.263091 0.102722 -0.445684 12.466068 -8.840589 -7.835700 -1.960125 -0.140821 -0.127037 0.000000 0.000000 0.000000 -2.347859 14.890066 0.910658 -63.293160 4.088094 16.922043 -179.734239 -86.548819 179.949901 9.504023 3.425012 0.273833 -0.249450 0.253444 -0.000000 0.000000 0.000000 0.000000 0.000000 0.000000 0.000000 7.515965 -1.326638 0.171159 50.629411 16.324998 8.932750 179.441796 80.297594 -179.982600 1.947029 5.450032 0.103877 -0.024221 -0.513514 -0.000000 0.000000 0.000000 0.000000 0.000000 0.000000 0.000000 
